<?xml version="1.0" encoding="utf-8"?>
<!-- Generator: Adobe Illustrator 16.0.4, SVG Export Plug-In . SVG Version: 6.00 Build 0)  -->
<!DOCTYPE svg PUBLIC "-//W3C//DTD SVG 1.1//EN" "http://www.w3.org/Graphics/SVG/1.1/DTD/svg11.dtd">
<svg version="1.1" id="Layer_1" xmlns="http://www.w3.org/2000/svg" xmlns:xlink="http://www.w3.org/1999/xlink" x="0px" y="0px"
	 width="514px" height="122px" viewBox="0 0 514 122" enable-background="new 0 0 514 122" xml:space="preserve">
<g>
	<path fill="#FFFFFF" d="M301.138,41.47c-5.891-8.227-13.963-13.166-24.911-13.166c-18.246,0-33.043,14.938-33.043,33.373
		c0,18.444,14.797,33.384,33.043,33.384c13.168,0,24.536-7.765,29.846-19.005c0,0-33.994,0.017-33.994,0V48.718h62.271V6.337h55.515
		v27.327h-29.086c0,0-0.097,15.054,0,15.054h29.086V76.04h-29.086v14.115h29.086v26.647c0.934,0.055-55.544-0.035-55.544,0V76.271
		c-6.568,30.199-30.835,45.744-58.094,45.744c-26.998,0-49.432-15.962-55.974-44.22l-0.012,7.279v31.728h-27.312V52.251
		c0,0-15.79,13.91-15.79,64.552h-28.042c0-50.642-15.785-64.552-15.785-64.552v64.552H106.01V4.659
		c31.451,0,52.232,35.336,57.104,56.204h0.017c4.868-20.867,25.641-56.204,57.112-56.204v37.308l0.012-0.047
		c5.293-24.773,30.224-41.561,55.974-41.561c26.45,0,49.733,19.959,54.649,41.111H301.138z"/>
	<path fill="#FFFFFF" d="M449.746,116.805c-3.997-30.488-24.153-52.197-24.153-52.197v52.188h-28.959V6.358
		c6.427,0,29.481,12.446,53.106,46.433V6.338h28.256v110.467H449.746z"/>
	<path fill="#FFFFFF" d="M36.689,89.107c-0.759,3.183-5.606,20.146-7.55,27.942H0.853c3.736-13.957,11.204-37.83,18.781-53.757
		c7.561-15.876,17.108-33.354,32.742-45.131C59.6,12.708,73.61,1.998,99.563,4.422v112.483H72.127V89.107H36.689L36.689,89.107z
		 M72.143,63.416v-26.14c-8.788,6.129-18.211,17.506-23.899,26.14H72.143z"/>
	<path fill="#FFFFFF" d="M490.188,13c0-6.551,5.34-11.888,11.951-11.888c6.547,0,11.881,5.337,11.881,11.888
		c0,6.602-5.334,11.947-11.881,11.947C495.525,24.946,490.188,19.602,490.188,13 M511.773,13c0-5.337-4.301-9.65-9.636-9.65
		c-5.37,0-9.7,4.312-9.7,9.65c0,5.386,4.33,9.709,9.7,9.709C507.475,22.708,511.773,18.386,511.773,13 M508.045,19.519h-2.941
		l-2.846-5.461h-2.52v5.461h-2.516V6.628h6.217c1.09,0,2.51,0.039,3.482,0.644c1.146,0.755,1.52,1.997,1.52,3.33
		c0,2.333-1.244,3.309-3.523,3.457L508.045,19.519z M503.497,12.148c1.421,0.031,2.43-0.303,2.43-1.938
		c0-1.668-1.821-1.668-3.064-1.668h-3.123v3.606H503.497z"/>
</g>
</svg>
