<svg data-name="Bristol-Meyers Squibb" xmlns="http://www.w3.org/2000/svg" viewBox="0 0 352.89 46.42"><path fill="#fff" d="M312.38 11.89a2.16 2.16 0 1 0 2.16-2.2 2.21 2.21 0 0 0-2.16 2.2m29.7-2.83c0-.82-.31-1.07-.74-1.07a4 4 0 0 0-1.36.51l-2.66 1.2c-.56.25-.68.44-.68.75s.25.57.8.57c.86 0 1.17.25 1.17 1.39v18.66c0 .88-.25 1.07-1 1.13-.56.06-.8.31-.8.75 0 1.32 4.45 2.33 7.72 2.33 5.43 0 8.34-3.52 8.34-9.06 0-3.84-1.42-8-6.36-8-1.92 0-3.71.88-3.71 1.7a.62.62 0 0 0 .62.63c.62 0 1-.57 2.28-.57 2 0 3.33 2.2 3.33 6.17 0 5-1.48 7.17-4.13 7.17-1.92 0-2.85-.69-2.85-3.15V9.06zm-70.94 19.56a4.17 4.17 0 0 1-4.51 4.4 6.78 6.78 0 0 1-5.25-2.58c-1.05-1.26-1-1.82-2-1.82a.93.93 0 0 0-.92 1 25.4 25.4 0 0 0 .99 4.29c.31 1.19.49 1.57 1.11 1.57 1 0 .86-1 1.79-1s1.73.82 4.82.82c5.49 0 8.08-3.33 8.08-7.29 0-3.53-1.91-5.85-6.67-9.19-4.57-3.21-5.06-3.84-5.06-5.66s1.42-3 3.64-3a6.2 6.2 0 0 1 4.44 2c.92 1 1.17 2.07 2 2.07.56 0 .86-.25.86-.82s-.37-1.76-.86-4.34c-.18-.94-.37-1.32-1-1.32s-1 .75-1.85.75a27.11 27.11 0 0 0-4-.57c-4.69 0-7.41 2.2-7.41 5.91 0 3.33 1.54 4.85 5.43 7.61 3.65 2.58 6.3 4.15 6.3 7.24m16.55 11.13c0 1-.37 1.19-.92 1.26l-.56.06a.64.64 0 0 0-.62.69c0 .37.25.69.86.69h5.93c.62 0 .86-.32.86-.69a.64.64 0 0 0-.62-.69l-.56-.06c-.56-.07-.92-.25-.92-1.26v-19.5a13.46 13.46 0 0 1 .31-2.27.69.69 0 0 0-.74-.76c-.8 0-1.3.82-1.92 2a8.48 8.48 0 0 0-4.27-1.08c-5.43 0-7.84 3.77-7.84 9s3 8.11 6.73 8.11c1.61 0 3.58-.69 3.58-1.83a.7.7 0 0 0-.74-.69c-.56 0-.74.5-2.1.5-2.47 0-3.64-1.82-3.64-6.1 0-4 1.24-7 4.14-7 2.22 0 3.15 1.07 3.15 3.65v15.9zm25.26-7.67c0 1-.37 1.19-.93 1.25l-.55.06a.64.64 0 0 0-.62.69c0 .37.24.69.86.69h5.93c.62 0 .86-.32.86-.69a.64.64 0 0 0-.62-.69l-.56-.06c-.56-.06-.93-.25-.93-1.25V19.21c0-.82-.31-1.07-.74-1.07a4 4 0 0 0-1.36.5l-2.66 1.2c-.56.25-.68.44-.68.75s.25.56.8.56c.86 0 1.17.25 1.17 1.39v9.5zm-3.83 2.71c.62 0 .86-.32.86-.69a.64.64 0 0 0-.62-.69l-.56-.06c-.56-.06-.92-.25-.92-1.25V19.21c0-.82-.31-1.07-.74-1.07a4 4 0 0 0-1.36.5l-2.66 1.2c-.56.25-.68.44-.68.75s.25.56.8.56c.86 0 1.17.25 1.17 1.39v6.17c0 3.08-1.3 4.21-3.27 4.21-1.79 0-2.78-.63-2.78-3.77v-9.94c0-.82-.31-1.07-.74-1.07a4 4 0 0 0-1.36.5l-2.66 1.2c-.56.25-.68.44-.68.75s.25.56.8.56c.86 0 1.17.25 1.17 1.39v7.49c0 3.65 1.79 5 5 5 2.16 0 4-.81 4.69-1.82l.12.06v.95c0 .31.19.51.68.51h3.7zm15.81-25.8c0-.82-.31-1.07-.74-1.07a4 4 0 0 0-1.36.51l-2.65 1.2c-.56.25-.68.44-.68.75s.24.57.8.57c.86 0 1.17.25 1.17 1.39v18.66c0 .88-.25 1.07-1 1.13-.56.06-.8.31-.8.75 0 1.32 4.44 2.33 7.72 2.33 5.44 0 8.34-3.52 8.34-9.06 0-3.84-1.42-8-6.36-8-1.91 0-3.7.88-3.7 1.7a.63.63 0 0 0 .62.63c.62 0 1-.57 2.28-.57 2 0 3.33 2.2 3.33 6.17 0 5-1.48 7.17-4.14 7.17-1.91 0-2.84-.69-2.84-3.15V9.06zm-160 18.87c.68 0 .86-.19.86-.75v-1.07c0-.57-.19-.76-.86-.76h-7.6c-.68 0-.86.19-.86.76v1.1c0 .57.18.75.86.75zm35-5.28a5.81 5.81 0 0 1-.62-1.83c0-.5.37-.75.86-.82s.8-.31.8-.63-.37-.57-1-.57h-5.56c-.62 0-.93.13-.93.63 0 .25.12.5.56.57.86.13 1.42.63 2.1 2.14l5.38 12.14c-1.3 2.39-3.09 5.29-4.14 6.85-.25.38-.56.69-.56 1s.24.32.56.32h2a1 1 0 0 0 1.11-.69c.31-.88 1.11-2.89 2.78-7l5.06-12.83c.5-1.2.68-1.51 1.48-1.76.62-.19.92-.38.92-.75s-.25-.57-.68-.57h-4.63c-.62 0-.87.13-.87.63 0 .31.25.57.8.63s1.17.31 1.17.88a3.75 3.75 0 0 1-.37 1.57l-3 7.73zm-30.63 8.68c0 1.2-.24 1.7-1.36 1.76-.8.06-1.11.31-1.11.88s.31.82 1.11.82h5.31c.8 0 1.11-.32 1.11-.82s-.31-.82-1.11-.88c-1.11-.06-1.36-.57-1.36-1.76V14.47h.18l6.24 12.52c.68 1.38 1.11 1.7 1.54 1.7s.86-.37 1.48-1.7l6.19-13.15h.12v17.48c0 1.2-.24 1.7-1.36 1.76-.74.06-1.11.31-1.11.88s.37.82 1.11.82h6.91c.8 0 1.11-.32 1.11-.82s-.31-.82-1.11-.88c-1.11-.06-1.36-.57-1.36-1.76V11.89c0-1.19.25-1.7 1.36-1.76.8-.06 1.11-.31 1.11-.88s-.31-.82-1.11-.82h-3.89c-1.36 0-1.48.19-1.85.95l-6.79 14-7.35-13.91c-.49-.94-.62-1.07-1.79-1.07h-3.64c-.8 0-1.11.31-1.11.82s.31.82 1.11.88c1.11.06 1.36.57 1.36 1.76v19.46zm52.73-6c1.67-1.07 2.22-1.64 2.22-2.52 0-1.51-1.92-4.59-6.3-4.59-5.12 0-8 3.83-8 8.93s3.46 8.18 8 8.18c4.14 0 6.73-2.83 6.73-3.77a.66.66 0 0 0-.68-.69c-.43 0-.93.44-1.6 1.07a5.4 5.4 0 0 1-3.71 1.44c-3.27 0-4.94-2.51-4.94-6.48 0-4.15 1.42-6.79 3.95-6.79a2.71 2.71 0 0 1 2.72 2.7c0 .95-.12 1.26-1.3 2l-3.15 2c-.68.44-.92.81-.92 1.32a.94.94 0 0 0 .86.88 2.62 2.62 0 0 0 1.48-.63zm23 5.91a2.12 2.12 0 0 1-2.35 2.2 4.11 4.11 0 0 1-3.64-1.89c-.74-1.19-.93-1.45-1.48-1.45s-.74.44-.74.94.25 1.32.5 3.09c.12.88.37 1.19.86 1.19s.68-.63 1.36-.63 1.42.63 3.46.63c2.47 0 5.49-1.51 5.49-4.85 0-5.22-7.78-6-7.78-8.8 0-.95.74-1.7 2-1.7a3.86 3.86 0 0 1 3.15 1.63c.49.63.74 1.26 1.36 1.26.43 0 .68-.25.68-.75a20.31 20.31 0 0 0-.49-2.77c-.25-.88-.37-1.2-.86-1.2a.85.85 0 0 0-.62.31.72.72 0 0 1-.56.32 2.89 2.89 0 0 1-1-.25 6.75 6.75 0 0 0-2.1-.31c-3.52 0-5.06 2-5.06 4.21 0 4.59 7.78 5.53 7.78 8.81m-17.72.88c0 1-.37 1.19-.93 1.25l-.56.06a.64.64 0 0 0-.62.69c0 .37.25.69.86.69h5.93c.62 0 .86-.32.86-.69a.64.64 0 0 0-.62-.69l-.56-.06c-.56-.06-.93-.25-.93-1.25v-6.9c0-3 .93-4.09 2.28-4.09a1.9 1.9 0 0 1 1.05.31 1.76 1.76 0 0 0 .92.44c.37 0 .68-.38 1.05-.82.56-.69.74-1.07.74-1.32 0-.56-1.05-1.44-2.41-1.44a3.68 3.68 0 0 0-3.52 2.51h-.12v-1.59c0-.82-.31-1.07-.74-1.07a4 4 0 0 0-1.36.5l-2.66 1.2c-.56.25-.68.44-.68.75s.25.56.8.56c.86 0 1.17.25 1.17 1.39v9.5zM101.39 11.89a2.16 2.16 0 1 0 2.16-2.2 2.21 2.21 0 0 0-2.16 2.2m47.91 20.19c0 1-.37 1.19-.92 1.25l-.56.06a.64.64 0 0 0-.62.69c0 .37.25.69.86.69h5.93c.62 0 .86-.32.86-.69a.64.64 0 0 0-.62-.69l-.55-.06c-.56-.06-.93-.25-.93-1.25v-23c0-.82-.31-1.07-.74-1.07a4 4 0 0 0-1.36.51L148 9.72c-.56.25-.68.44-.68.75s.24.57.8.57c.87 0 1.17.25 1.17 1.39v19.65zm-47.36 0c0 1-.37 1.19-.92 1.25l-.56.06a.64.64 0 0 0-.62.69c0 .37.25.69.86.69h5.93c.62 0 .86-.32.86-.69a.64.64 0 0 0-.62-.69l-.56-.06c-.56-.06-.93-.25-.93-1.25V19.21c0-.82-.31-1.07-.74-1.07a4 4 0 0 0-1.36.5l-2.66 1.2c-.56.25-.68.44-.68.75s.25.56.8.56c.86 0 1.17.25 1.17 1.39v9.5zm24.34-10.57c0-.88.19-1.13 1-1.13h1.48c.62 0 .86-.31.86-.82s-.31-.88-.93-.88h-2.41v-6.41c0-.44-.18-.69-.55-.69a2.72 2.72 0 0 0-.8.31l-1.6.82a.8.8 0 0 0-.5.88v5.09h-1.54c-.62 0-.92.25-.92.88s.24.82.86.82h.62c.8 0 1 .25 1 1.13v9.94c0 2.39.62 3.84 3.33 3.84 2.16 0 4-1.13 4-2a.73.73 0 0 0-.68-.81c-.62 0-1.11.63-2 .63-.68 0-1.11-.44-1.11-1.76v-9.84zm7.1 5.28c0-4.09 1.72-6.73 4.57-6.73s4.63 2.64 4.63 6.73-1.66 6.61-4.63 6.61-4.57-2.58-4.57-6.61m-43.93 5.29c0 1-.37 1.19-.93 1.25l-.56.06a.64.64 0 0 0-.62.69c0 .37.25.69.86.69h5.93c.62 0 .86-.32.86-.69a.64.64 0 0 0-.62-.69l-.56-.06c-.56-.06-.93-.25-.93-1.25v-6.87c0-3 .93-4.09 2.28-4.09a1.92 1.92 0 0 1 1.05.31 1.75 1.75 0 0 0 .92.44c.37 0 .68-.38 1-.82.56-.69.74-1.07.74-1.32 0-.56-1.05-1.44-2.41-1.44a3.68 3.68 0 0 0-3.52 2.51h-.12v-1.59c0-.82-.31-1.07-.74-1.07a4 4 0 0 0-1.36.5l-2.66 1.2c-.55.25-.68.44-.68.75s.25.56.8.56c.86 0 1.17.25 1.17 1.39v9.5zM73.11 13.21c0-2.58 1-3.46 3.46-3.46 3.15 0 4.51 2.13 4.51 4.9 0 3.21-2.1 4.47-4.51 4.66l-.86.06c-.68.06-1.11.31-1.11 1s.43 1 1.17 1h.87c3.7 0 5.37 2.64 5.37 6 0 2.89-1.67 5.91-5.37 5.91-3.09 0-3.52-1.13-3.52-3.65V13.21zm-4.07 16.48c0 1.57-.12 1.76-.92 1.89-.62.13-.86.38-.86.82 0 1.57 4.57 2.89 9.2 2.89 6.86 0 10-3.65 10-8.37 0-3.65-2-6.29-6.42-6.79V20c3.27-.63 5.25-2.89 5.25-5.66 0-4.4-3.4-6.6-8.71-6.6-4.88 0-9.26 1.76-9.26 3 0 .38.18.57.8.69s.92.31.92 1.32v17zm60.51-2.89c0 5.22 3.4 8.49 8.4 8.49s8.5-3.27 8.5-8.5-3.5-8.58-8.5-8.58-8.4 3.33-8.4 8.61m-13.1 4.39a2.11 2.11 0 0 1-2.35 2.2 4.11 4.11 0 0 1-3.65-1.9c-.74-1.19-.93-1.45-1.48-1.45s-.74.44-.74.94.25 1.32.5 3.09c.12.88.37 1.19.86 1.19s.68-.63 1.36-.63 1.42.63 3.46.63c2.47 0 5.5-1.51 5.5-4.85 0-5.22-7.78-6-7.78-8.8 0-.95.74-1.7 2-1.7a3.87 3.87 0 0 1 3.15 1.63c.49.63.74 1.26 1.36 1.26.43 0 .68-.25.68-.75a19.94 19.94 0 0 0-.5-2.77c-.25-.88-.37-1.2-.86-1.2a.85.85 0 0 0-.62.31.71.71 0 0 1-.56.32 2.84 2.84 0 0 1-1-.25 6.78 6.78 0 0 0-2.1-.31c-3.52 0-5.06 2-5.06 4.21 0 4.59 7.78 5.53 7.78 8.81M18.9 45.42a14.57 14.57 0 0 0-2.47.19v-.12a18.74 18.74 0 0 0 2-.95l7.85-4.65 7.84 4.65a19.21 19.21 0 0 0 2 .95v.12a14.57 14.57 0 0 0-2.47-.19zm-4.94 1h24.57l-12.28-21.7zm14-24.09h24.49L40.2.63zm4.94-1a14 14 0 0 0-2.47.19v-.13a18.08 18.08 0 0 0 2-.95l7.84-4.65 7.84 4.65a18.06 18.06 0 0 0 2 .95v.13a14 14 0 0 0-2.47-.19zm-32.85 1h24.53L12.29.63zm4.94-1a14.06 14.06 0 0 0-2.54.18v-.13a17.67 17.67 0 0 0 2-.95l7.84-4.65 7.85 4.65a17.7 17.7 0 0 0 2 .95v.13a14.13 14.13 0 0 0-2.47-.19zm42.56 3.77a14.11 14.11 0 0 0 2.47-.19v.13a17.43 17.43 0 0 0-2 .95l-7.84 4.65-7.84-4.65a17.68 17.68 0 0 0-2-.95v-.13a14.12 14.12 0 0 0 2.47.19zm-27.91 0a14.2 14.2 0 0 0 2.47-.19v.13a17.1 17.1 0 0 0-2 .95l-7.85 4.65-7.81-4.66a17.31 17.31 0 0 0-2-.95v-.12a14.2 14.2 0 0 0 2.47.19zm14-24.09a14.46 14.46 0 0 0 2.47-.19v.12a18.07 18.07 0 0 0-2 .95l-7.86 4.65-7.8-4.65a17.57 17.57 0 0 0-2-.95V.82a14.45 14.45 0 0 0 2.47.19zm14.9 25.85c.86-.51 1.42-.88 2-1.26l.06.13a15.35 15.35 0 0 0-1.3 1.89l-7.68 13.52a11.5 11.5 0 0 0-.92 2.07l-.12-.07c0-.75.12-1.63.12-2.45v-9.12zm-8.83 4.71v9.13c0 .81.12 1.69.12 2.45l-.12.07a11.55 11.55 0 0 0-.92-2.08l-7.73-13.53a15.36 15.36 0 0 0-1.3-1.89l.06-.13c.62.38 1.17.75 2 1.26zm.5 14.22l12.24-21.7H27.92zM11.8 31.57v9.13c0 .81.12 1.69.12 2.45l-.12.07a11.85 11.85 0 0 0-.92-2.08L3.15 27.61a15.41 15.41 0 0 0-1.3-1.89l.06-.13c.62.38 1.17.75 2 1.26zm8.83-4.71c.86-.51 1.42-.88 2-1.26l.06.13a15 15 0 0 0-1.24 1.88l-7.74 13.53a11.85 11.85 0 0 0-.92 2.07l-.12-.07c0-.75.12-1.63.12-2.45v-9.12zm-8.34 18.93l12.29-21.7H0zm5.62-2.14c-.86.5-1.42.88-2 1.25l-.06-.12a15.09 15.09 0 0 0 1.3-1.89l7.72-13.53a11.38 11.38 0 0 0 .92-2.07l.12.06c0 .75-.12 1.63-.12 2.45v9.12zm8.83-4.72v-9.11c0-.82-.12-1.7-.12-2.45l.12-.06a11.61 11.61 0 0 0 .93 2.07l7.72 13.53a16.23 16.23 0 0 0 1.3 1.89l-.06.12c-.62-.37-1.18-.75-2-1.25zM3.96 19.56c-.87.51-1.42.88-2 1.26l-.06-.13a15.32 15.32 0 0 0 1.25-1.88l7.72-13.52a11.84 11.84 0 0 0 .93-2.08l.12.07c0 .75-.12 1.63-.12 2.45v9.12zm36.74-4.71V5.73c0-.82-.12-1.7-.12-2.45l.12-.07a11.48 11.48 0 0 0 .92 2.08l7.72 13.52a15.3 15.3 0 0 0 1.3 1.89l-.06.13c-.62-.38-1.17-.75-2-1.26zm-27.91 0V5.73c0-.82-.12-1.7-.12-2.45l.12-.07a11.83 11.83 0 0 0 .92 2.08l7.74 13.52a14.82 14.82 0 0 0 1.3 1.89l-.06.13c-.62-.38-1.17-.75-2-1.26zm19.08 4.71c-.86.51-1.42.88-2 1.26l-.06-.13a15.23 15.23 0 0 0 1.3-1.89l7.67-13.51a11.49 11.49 0 0 0 .92-2.08l.12.07c0 .75-.12 1.63-.12 2.45v9.12zM25.75 7.49v9.12c0 .81.12 1.7.12 2.45l-.12.06a11.39 11.39 0 0 0-.92-2.07L17.11 3.52a15 15 0 0 0-1.3-1.89l.06-.12c.62.37 1.17.75 2 1.25zm8.83-4.72c.86-.5 1.42-.88 2-1.25l.06.12a16.11 16.11 0 0 0-1.3 1.89l-7.67 13.52a11.68 11.68 0 0 0-.93 2.07l-.12-.06c0-.75.12-1.64.12-2.45V7.49zM26.25 21.7L38.53 0H13.96z"/></svg>