<?xml version="1.0" encoding="utf-8"?>
<!-- Generator: Adobe Illustrator 16.0.3, SVG Export Plug-In . SVG Version: 6.00 Build 0)  -->
<!DOCTYPE svg PUBLIC "-//W3C//DTD SVG 1.1//EN" "http://www.w3.org/Graphics/SVG/1.1/DTD/svg11.dtd">
<svg version="1.1" id="Ebene_1" xmlns="http://www.w3.org/2000/svg" xmlns:xlink="http://www.w3.org/1999/xlink" x="0px" y="0px"
	 width="514.77px" height="89.426px" viewBox="0 0 514.77 89.426" enable-background="new 0 0 514.77 89.426" xml:space="preserve">
<g>
	<g>
		<g>
			<polygon fill="#0074B7" points="256.409,87.734 256.409,69.125 189.225,69.125 189.225,53.417 231.275,53.417 231.275,34.81 
				189.225,34.81 189.225,20.551 254.958,20.551 254.958,1.942 149.592,1.942 149.592,87.734 256.409,87.734 			"/>
			<polygon fill="#0074B7" points="377.242,87.734 377.242,67.676 323.109,67.676 323.109,1.942 282.751,1.942 282.751,87.734 
				377.242,87.734 			"/>
			<path fill-rule="evenodd" clip-rule="evenodd" fill="#0074B7" d="M67.184,87.734c31.058-0.105,58.246-14.715,58.242-43.017
				C125.43,16.639,99.5,1.283,67.184,1.942H0v85.792H67.184L67.184,87.734z M60.9,69.125c12.671-0.05,22.856-8.432,22.716-24.408
				C83.515,27.463,73.448,20.552,60.9,20.551H40.358v48.575H60.9L60.9,69.125z"/>
			<path fill-rule="evenodd" clip-rule="evenodd" fill="#0074B7" d="M382.56,44.717c-0.073-26.065,28.339-45.196,66.217-44.708
				c37.644,0.015,66.341,17.888,65.975,44.708c0.869,26.044-28.583,44.674-65.975,44.709
				C411.402,89.391,382.486,73.027,382.56,44.717L382.56,44.717z M424.609,44.476c0.109-14.354,6.428-25.824,24.167-26.1
				c17.252,0.276,23.958,11.746,23.924,26.1c0.034,14.564-5.539,26.412-23.924,26.342C431.037,70.888,424.719,59.041,424.609,44.476
				L424.609,44.476z"/>
		</g>
	</g>
</g>
</svg>
